# xmcd CD database file
#
# Track frame offsets:
#	150
#	11936
#	23054
#	36309
#	48019
#	58490
#	71532
#	84202
#	97495
#	111172
#	126120
#	140811
#
# Disc length: 2045 seconds
#
# Revision: 2
# Processed by: cddbd v1.5.2PL0 Copyright (c) Steve Scherf et al.
# Submitted via: CDex 1.50Beta7
#
DISCID=ae07fb0c
DTITLE=Heino - Singlehits 1968 - 1970
DYEAR=1993
DGENRE=Volksmusik
TTITLE0=Zu der Ponderosa reiten wir
TTITLE1=Zwei weiße Möwen
TTITLE2=Treue Bergvagabunden
TTITLE3=Schwer mit den Schätzen des Orient's geladen
TTITLE4=Wenn die Kraniche zieh'n...
TTITLE5=In Junkers Kneipe
TTITLE6=Kramba, Karacho, ein Whisky
TTITLE7=Heute geht die Sehnsucht zu Dir auf die Reise
TTITLE8=Hey Capello
TTITLE9=Ay, Ay, Ay, Paloma
TTITLE10=In einer Bar in Mexico
TTITLE11=Fernweh
EXTD=YEAR: 1993
EXTT0=
EXTT1=
EXTT2=
EXTT3=
EXTT4=
EXTT5=
EXTT6=
EXTT7=
EXTT8=
EXTT9=
EXTT10=
EXTT11=
PLAYORDER=
